<svg xmlns="http://www.w3.org/2000/svg" width="16" height="16" viewBox="0 0 16 16"><path fill="#0b95d3" d="M8 0a8 8 0 1 0 0 16A8 8 0 0 0 8 0zM2.1 8.5h2c.05 1.15.24 2.2.52 3.05a7 7 0 0 1-2.52-3.05zm0-1a7 7 0 0 1 2.52-3.05 11.4 11.4 0 0 0-.52 3.05h-2zM8 1.1c.6.5 1.35 1.8 1.7 3.4H6.3c.35-1.6 1.1-2.9 1.7-3.4zM6.1 5.5h3.8c.06.47.1.97.1 1.5s-.04 1.03-.1 1.5H6.1c-.06-.47-.1-.97-.1-1.5s.04-1.03.1-1.5zM8 14.9c-.6-.5-1.35-1.8-1.7-3.4h3.4c-.35 1.6-1.1 2.9-1.7 3.4zm1.38-.35c.28-.85.47-1.9.52-3.05h2a7 7 0 0 1-2.52 3.05zm.52-4.05c.06-.48.1-.98.1-1.5s-.04-1.02-.1-1.5h2.1c.13.48.2.98.2 1.5s-.07 1.02-.2 1.5h-2.1zm0-6.5c-.05-1.15-.24-2.2-.52-3.05a7 7 0 0 1 2.52 3.05h-2zm-4.8 0h-2a7 7 0 0 1 2.52-3.05c-.28.85-.47 1.9-.52 3.05zm-.1 1c-.13.48-.2.98-.2 1.5s.07 1.02.2 1.5h-2.1a5.98 5.98 0 0 1 0-3h2.1z"/></svg>
